<svg width="357" height="76" viewBox="0 0 357 76" fill="none" xmlns="http://www.w3.org/2000/svg">
<path d="M5.312 51V6.2H24.704C28.7147 6.2 32.1707 6.86133 35.072 8.184C37.9733 9.464 40.2133 11.32 41.792 13.752C43.3707 16.184 44.16 19.0853 44.16 22.456C44.16 25.784 43.3707 28.664 41.792 31.096C40.2133 33.528 37.9733 35.4053 35.072 36.728C32.1707 38.008 28.7147 38.648 24.704 38.648H11.072L15.68 33.976V51H5.312ZM15.68 35.128L11.072 30.2H24.128C27.328 30.2 29.7173 29.5173 31.296 28.152C32.8747 26.7867 33.664 24.888 33.664 22.456C33.664 19.9813 32.8747 18.0613 31.296 16.696C29.7173 15.3307 27.328 14.648 24.128 14.648H11.072L15.68 9.72V35.128ZM48.362 51V6.2H67.754C71.7647 6.2 75.2207 6.86133 78.122 8.184C81.0233 9.464 83.2633 11.32 84.842 13.752C86.4207 16.184 87.21 19.0853 87.21 22.456C87.21 25.784 86.4207 28.664 84.842 31.096C83.2633 33.4853 81.0233 35.32 78.122 36.6C75.2207 37.88 71.7647 38.52 67.754 38.52H54.122L58.73 33.976V51H48.362ZM76.842 51L65.642 34.744H76.714L88.042 51H76.842ZM58.73 35.128L54.122 30.264H67.178C70.378 30.264 72.7673 29.5813 74.346 28.216C75.9247 26.808 76.714 24.888 76.714 22.456C76.714 19.9813 75.9247 18.0613 74.346 16.696C72.7673 15.3307 70.378 14.648 67.178 14.648H54.122L58.73 9.72V35.128ZM113.984 51.768C110.443 51.768 107.158 51.192 104.128 50.04C101.142 48.888 98.5392 47.2667 96.3205 45.176C94.1445 43.0853 92.4378 40.632 91.2005 37.816C90.0058 35 89.4085 31.928 89.4085 28.6C89.4085 25.272 90.0058 22.2 91.2005 19.384C92.4378 16.568 94.1658 14.1147 96.3845 12.024C98.6032 9.93333 101.206 8.312 104.192 7.16C107.179 6.008 110.422 5.432 113.92 5.432C117.462 5.432 120.704 6.008 123.648 7.16C126.635 8.312 129.217 9.93333 131.393 12.024C133.611 14.1147 135.339 16.568 136.576 19.384C137.814 22.1573 138.433 25.2293 138.433 28.6C138.433 31.928 137.814 35.0213 136.576 37.88C135.339 40.696 133.611 43.1493 131.393 45.24C129.217 47.288 126.635 48.888 123.648 50.04C120.704 51.192 117.483 51.768 113.984 51.768ZM113.92 42.936C115.926 42.936 117.76 42.5947 119.424 41.912C121.131 41.2293 122.625 40.248 123.904 38.968C125.185 37.688 126.166 36.1733 126.848 34.424C127.574 32.6747 127.937 30.7333 127.937 28.6C127.937 26.4667 127.574 24.5253 126.848 22.776C126.166 21.0267 125.185 19.512 123.904 18.232C122.667 16.952 121.195 15.9707 119.488 15.288C117.782 14.6053 115.926 14.264 113.92 14.264C111.915 14.264 110.059 14.6053 108.352 15.288C106.688 15.9707 105.216 16.952 103.936 18.232C102.656 19.512 101.654 21.0267 100.928 22.776C100.246 24.5253 99.9045 26.4667 99.9045 28.6C99.9045 30.6907 100.246 32.632 100.928 34.424C101.654 36.1733 102.635 37.688 103.872 38.968C105.152 40.248 106.646 41.2293 108.352 41.912C110.059 42.5947 111.915 42.936 113.92 42.936Z" fill="#306EEC"/>
<path d="M152.624 26.36H174.128V34.68H152.624V26.36ZM153.392 51H143.024V6.2H176.88V14.52H153.392V51ZM180.699 51V6.2H191.067V51H180.699ZM193.38 51L212.644 24.44V31.992L194.212 6.2H205.988L218.724 24.184L213.796 24.248L226.34 6.2H237.604L219.3 31.544V24.12L238.692 51H226.724L213.54 31.992H218.276L205.284 51H193.38ZM248.33 51V14.648H233.994V6.2H273.034V14.648H258.698V51H248.33ZM284.948 24.248H306.516V32.312H284.948V24.248ZM285.716 42.68H310.1V51H275.412V6.2H309.268V14.52H285.716V42.68ZM315.149 51V6.2H334.541C338.552 6.2 342.008 6.86133 344.909 8.184C347.811 9.464 350.051 11.32 351.629 13.752C353.208 16.184 353.997 19.0853 353.997 22.456C353.997 25.784 353.208 28.664 351.629 31.096C350.051 33.4853 347.811 35.32 344.909 36.6C342.008 37.88 338.552 38.52 334.541 38.52H320.909L325.517 33.976V51H315.149ZM343.629 51L332.429 34.744H343.501L354.829 51H343.629ZM325.517 35.128L320.909 30.264H333.965C337.165 30.264 339.555 29.5813 341.133 28.216C342.712 26.808 343.501 24.888 343.501 22.456C343.501 19.9813 342.712 18.0613 341.133 16.696C339.555 15.3307 337.165 14.648 333.965 14.648H320.909L325.517 9.72V35.128Z" fill="#EEF2FF"/>
<path d="M6.5115 72V60.8H7.6955V70.976H13.9675V72H6.5115ZM18.1924 72.08C17.3817 72.08 16.651 71.8987 16.0004 71.536C15.3604 71.1627 14.8537 70.656 14.4804 70.016C14.107 69.3653 13.9204 68.624 13.9204 67.792C13.9204 66.9493 14.107 66.208 14.4804 65.568C14.8537 64.928 15.3604 64.4267 16.0004 64.064C16.6404 63.7013 17.371 63.52 18.1924 63.52C19.0244 63.52 19.7604 63.7013 20.4004 64.064C21.051 64.4267 21.5577 64.928 21.9204 65.568C22.2937 66.208 22.4804 66.9493 22.4804 67.792C22.4804 68.624 22.2937 69.3653 21.9204 70.016C21.5577 70.656 21.051 71.1627 20.4004 71.536C19.7497 71.8987 19.0137 72.08 18.1924 72.08ZM18.1924 71.072C18.8004 71.072 19.339 70.9387 19.8084 70.672C20.2777 70.3947 20.6457 70.0107 20.9124 69.52C21.1897 69.0187 21.3284 68.4427 21.3284 67.792C21.3284 67.1307 21.1897 66.5547 20.9124 66.064C20.6457 65.5733 20.2777 65.1947 19.8084 64.928C19.339 64.6507 18.8057 64.512 18.2084 64.512C17.611 64.512 17.0777 64.6507 16.6084 64.928C16.139 65.1947 15.7657 65.5733 15.4884 66.064C15.211 66.5547 15.0724 67.1307 15.0724 67.792C15.0724 68.4427 15.211 69.0187 15.4884 69.52C15.7657 70.0107 16.139 70.3947 16.6084 70.672C17.0777 70.9387 17.6057 71.072 18.1924 71.072ZM28.2876 63.52C28.9703 63.52 29.5676 63.6533 30.0796 63.92C30.6023 64.176 31.0076 64.5707 31.2956 65.104C31.5943 65.6373 31.7436 66.3093 31.7436 67.12V72H30.6076V67.232C30.6076 66.3467 30.3836 65.68 29.9356 65.232C29.4983 64.7733 28.8796 64.544 28.0796 64.544C27.4823 64.544 26.9596 64.6667 26.5116 64.912C26.0743 65.1467 25.733 65.4933 25.4876 65.952C25.253 66.4 25.1356 66.944 25.1356 67.584V72H23.9996V63.6H25.0876V65.904L24.9116 65.472C25.1783 64.864 25.605 64.3893 26.1916 64.048C26.7783 63.696 27.477 63.52 28.2876 63.52ZM37.5961 75.184C36.8281 75.184 36.0921 75.072 35.3881 74.848C34.6841 74.624 34.1135 74.304 33.6761 73.888L34.2521 73.024C34.6468 73.376 35.1321 73.6533 35.7081 73.856C36.2948 74.0693 36.9135 74.176 37.5641 74.176C38.6308 74.176 39.4148 73.9253 39.9161 73.424C40.4175 72.9333 40.6681 72.1653 40.6681 71.12V69.024L40.8281 67.584L40.7161 66.144V63.6H41.8041V70.976C41.8041 72.4267 41.4468 73.488 40.7321 74.16C40.0281 74.8427 38.9828 75.184 37.5961 75.184ZM37.3881 71.68C36.5881 71.68 35.8681 71.5093 35.2281 71.168C34.5881 70.816 34.0815 70.3307 33.7081 69.712C33.3455 69.0933 33.1641 68.384 33.1641 67.584C33.1641 66.784 33.3455 66.08 33.7081 65.472C34.0815 64.8533 34.5881 64.3733 35.2281 64.032C35.8681 63.6907 36.5881 63.52 37.3881 63.52C38.1348 63.52 38.8068 63.6747 39.4041 63.984C40.0015 64.2933 40.4761 64.752 40.8281 65.36C41.1801 65.968 41.3561 66.7093 41.3561 67.584C41.3561 68.4587 41.1801 69.2 40.8281 69.808C40.4761 70.416 40.0015 70.88 39.4041 71.2C38.8068 71.52 38.1348 71.68 37.3881 71.68ZM37.5001 70.672C38.1188 70.672 38.6681 70.544 39.1481 70.288C39.6281 70.0213 40.0068 69.6587 40.2841 69.2C40.5615 68.7307 40.7001 68.192 40.7001 67.584C40.7001 66.976 40.5615 66.4427 40.2841 65.984C40.0068 65.5253 39.6281 65.168 39.1481 64.912C38.6681 64.6453 38.1188 64.512 37.5001 64.512C36.8921 64.512 36.3428 64.6453 35.8521 64.912C35.3721 65.168 34.9935 65.5253 34.7161 65.984C34.4495 66.4427 34.3161 66.976 34.3161 67.584C34.3161 68.192 34.4495 68.7307 34.7161 69.2C34.9935 69.6587 35.3721 70.0213 35.8521 70.288C36.3428 70.544 36.8921 70.672 37.5001 70.672ZM47.7928 72V60.8H48.9768V72H47.7928ZM53.8369 72.08C53.1435 72.08 52.4875 71.984 51.8689 71.792C51.2502 71.5893 50.7649 71.3387 50.4129 71.04L50.9249 70.144C51.2662 70.4 51.7035 70.624 52.2369 70.816C52.7702 70.9973 53.3302 71.088 53.9169 71.088C54.7169 71.088 55.2929 70.9653 55.6449 70.72C55.9969 70.464 56.1729 70.128 56.1729 69.712C56.1729 69.4027 56.0715 69.1627 55.8689 68.992C55.6769 68.8107 55.4209 68.6773 55.1009 68.592C54.7809 68.496 54.4235 68.416 54.0289 68.352C53.6342 68.288 53.2395 68.2133 52.8449 68.128C52.4609 68.0427 52.1089 67.92 51.7889 67.76C51.4689 67.5893 51.2075 67.36 51.0049 67.072C50.8129 66.784 50.7169 66.4 50.7169 65.92C50.7169 65.4613 50.8449 65.0507 51.1009 64.688C51.3569 64.3253 51.7302 64.0427 52.2209 63.84C52.7222 63.6267 53.3302 63.52 54.0449 63.52C54.5889 63.52 55.1329 63.5947 55.6769 63.744C56.2209 63.8827 56.6689 64.0693 57.0209 64.304L56.5249 65.216C56.1515 64.96 55.7515 64.7787 55.3249 64.672C54.8982 64.5547 54.4715 64.496 54.0449 64.496C53.2875 64.496 52.7275 64.6293 52.3649 64.896C52.0129 65.152 51.8369 65.4827 51.8369 65.888C51.8369 66.208 51.9329 66.4587 52.1249 66.64C52.3275 66.8213 52.5889 66.9653 52.9089 67.072C53.2395 67.168 53.5969 67.248 53.9809 67.312C54.3755 67.376 54.7649 67.456 55.1489 67.552C55.5435 67.6373 55.9009 67.76 56.2209 67.92C56.5515 68.0693 56.8129 68.288 57.0049 68.576C57.2075 68.8533 57.3089 69.2213 57.3089 69.68C57.3089 70.1707 57.1702 70.5973 56.8929 70.96C56.6262 71.312 56.2315 71.5893 55.7089 71.792C55.1969 71.984 54.5729 72.08 53.8369 72.08ZM58.5934 72V60.128H59.7294V72H58.5934ZM67.3542 72V70.144L67.3062 69.84V66.736C67.3062 66.0213 67.1036 65.472 66.6982 65.088C66.3036 64.704 65.7116 64.512 64.9222 64.512C64.3782 64.512 63.8609 64.6027 63.3702 64.784C62.8796 64.9653 62.4636 65.2053 62.1222 65.504L61.6102 64.656C62.0369 64.2933 62.5489 64.016 63.1462 63.824C63.7436 63.6213 64.3729 63.52 65.0342 63.52C66.1222 63.52 66.9596 63.792 67.5462 64.336C68.1436 64.8693 68.4422 65.6853 68.4422 66.784V72H67.3542ZM64.4582 72.08C63.8289 72.08 63.2796 71.9787 62.8102 71.776C62.3516 71.5627 61.9996 71.2747 61.7542 70.912C61.5089 70.5387 61.3862 70.112 61.3862 69.632C61.3862 69.1947 61.4876 68.8 61.6902 68.448C61.9036 68.0853 62.2449 67.7973 62.7142 67.584C63.1942 67.36 63.8342 67.248 64.6342 67.248H67.5302V68.096H64.6662C63.8556 68.096 63.2902 68.24 62.9702 68.528C62.6609 68.816 62.5062 69.1733 62.5062 69.6C62.5062 70.08 62.6929 70.464 63.0662 70.752C63.4396 71.04 63.9622 71.184 64.6342 71.184C65.2742 71.184 65.8236 71.04 66.2822 70.752C66.7516 70.4533 67.0929 70.0267 67.3062 69.472L67.5622 70.256C67.3489 70.8107 66.9756 71.2533 66.4422 71.584C65.9196 71.9147 65.2582 72.08 64.4582 72.08ZM75.0158 63.52C75.6984 63.52 76.2958 63.6533 76.8078 63.92C77.3304 64.176 77.7358 64.5707 78.0238 65.104C78.3224 65.6373 78.4718 66.3093 78.4718 67.12V72H77.3358V67.232C77.3358 66.3467 77.1118 65.68 76.6638 65.232C76.2264 64.7733 75.6078 64.544 74.8078 64.544C74.2104 64.544 73.6878 64.6667 73.2398 64.912C72.8024 65.1467 72.4611 65.4933 72.2158 65.952C71.9811 66.4 71.8638 66.944 71.8638 67.584V72H70.7278V63.6H71.8158V65.904L71.6398 65.472C71.9064 64.864 72.3331 64.3893 72.9198 64.048C73.5064 63.696 74.2051 63.52 75.0158 63.52ZM84.0843 72.08C83.2843 72.08 82.5643 71.8987 81.9243 71.536C81.2949 71.1733 80.7989 70.672 80.4363 70.032C80.0736 69.3813 79.8923 68.6347 79.8923 67.792C79.8923 66.9387 80.0736 66.192 80.4363 65.552C80.7989 64.912 81.2949 64.416 81.9243 64.064C82.5643 63.7013 83.2843 63.52 84.0843 63.52C84.8203 63.52 85.4763 63.6853 86.0523 64.016C86.6389 64.3467 87.1029 64.832 87.4443 65.472C87.7963 66.1013 87.9722 66.8747 87.9722 67.792C87.9722 68.6987 87.8016 69.472 87.4603 70.112C87.1189 70.752 86.6549 71.2427 86.0683 71.584C85.4923 71.9147 84.8309 72.08 84.0843 72.08ZM84.1643 71.072C84.7616 71.072 85.2949 70.9387 85.7643 70.672C86.2443 70.3947 86.6176 70.0107 86.8843 69.52C87.1616 69.0187 87.3003 68.4427 87.3003 67.792C87.3003 67.1307 87.1616 66.5547 86.8843 66.064C86.6176 65.5733 86.2443 65.1947 85.7643 64.928C85.2949 64.6507 84.7616 64.512 84.1643 64.512C83.5776 64.512 83.0496 64.6507 82.5803 64.928C82.1109 65.1947 81.7376 65.5733 81.4603 66.064C81.1829 66.5547 81.0443 67.1307 81.0443 67.792C81.0443 68.4427 81.1829 69.0187 81.4603 69.52C81.7376 70.0107 82.1109 70.3947 82.5803 70.672C83.0496 70.9387 83.5776 71.072 84.1643 71.072ZM87.3323 72V69.472L87.4443 67.776L87.2843 66.08V60.128H88.4203V72H87.3323Z" fill="#EEF2FF"/>
</svg>
