<svg width="80" height="32" viewBox="0 0 80 32" fill="none" xmlns="http://www.w3.org/2000/svg">
<path d="M2.22109 19V5H7.68109C8.90776 5 9.95443 5.19333 10.8211 5.58C11.6878 5.96667 12.3544 6.52667 12.8211 7.26C13.2878 7.99333 13.5211 8.86667 13.5211 9.88C13.5211 10.8933 13.2878 11.7667 12.8211 12.5C12.3544 13.22 11.6878 13.78 10.8211 14.18C9.95443 14.5667 8.90776 14.76 7.68109 14.76H3.32109L4.22109 13.82V19H2.22109ZM4.22109 14.02L3.32109 13.02H7.62109C8.90109 13.02 9.86776 12.7467 10.5211 12.2C11.1878 11.6533 11.5211 10.88 11.5211 9.88C11.5211 8.88 11.1878 8.10667 10.5211 7.56C9.86776 7.01333 8.90109 6.74 7.62109 6.74H3.32109L4.22109 5.74V14.02ZM14.9841 19V8.4H16.8241V11.28L16.6441 10.56C16.9374 9.82667 17.4307 9.26667 18.1241 8.88C18.8174 8.49333 19.6707 8.3 20.6841 8.3V10.16C20.6041 10.1467 20.5241 10.14 20.4441 10.14C20.3774 10.14 20.3107 10.14 20.2441 10.14C19.2174 10.14 18.4041 10.4467 17.8041 11.06C17.2041 11.6733 16.9041 12.56 16.9041 13.72V19H14.9841ZM26.4928 19.12C25.4261 19.12 24.4795 18.8867 23.6528 18.42C22.8261 17.9533 22.1728 17.3133 21.6928 16.5C21.2128 15.6733 20.9728 14.74 20.9728 13.7C20.9728 12.6467 21.2128 11.7133 21.6928 10.9C22.1728 10.0867 22.8261 9.45333 23.6528 9C24.4795 8.53333 25.4261 8.3 26.4928 8.3C27.5461 8.3 28.4861 8.53333 29.3128 9C30.1528 9.45333 30.8061 10.0867 31.2728 10.9C31.7528 11.7 31.9928 12.6333 31.9928 13.7C31.9928 14.7533 31.7528 15.6867 31.2728 16.5C30.8061 17.3133 30.1528 17.9533 29.3128 18.42C28.4861 18.8867 27.5461 19.12 26.4928 19.12ZM26.4928 17.44C27.1728 17.44 27.7795 17.2867 28.3128 16.98C28.8595 16.6733 29.2861 16.24 29.5928 15.68C29.8995 15.1067 30.0528 14.4467 30.0528 13.7C30.0528 12.94 29.8995 12.2867 29.5928 11.74C29.2861 11.18 28.8595 10.7467 28.3128 10.44C27.7795 10.1333 27.1728 9.98 26.4928 9.98C25.8128 9.98 25.2061 10.1333 24.6728 10.44C24.1395 10.7467 23.7128 11.18 23.3928 11.74C23.0728 12.2867 22.9128 12.94 22.9128 13.7C22.9128 14.4467 23.0728 15.1067 23.3928 15.68C23.7128 16.24 24.1395 16.6733 24.6728 16.98C25.2061 17.2867 25.8128 17.44 26.4928 17.44ZM33.9281 19V7.46C33.9281 6.42 34.2281 5.59333 34.8281 4.98C35.4415 4.35333 36.3081 4.04 37.4281 4.04C37.8415 4.04 38.2348 4.09333 38.6081 4.2C38.9948 4.29333 39.3215 4.44667 39.5881 4.66L39.0081 6.12C38.8081 5.96 38.5815 5.84 38.3281 5.76C38.0748 5.66667 37.8081 5.62 37.5281 5.62C36.9681 5.62 36.5415 5.78 36.2481 6.1C35.9548 6.40667 35.8081 6.86667 35.8081 7.48V8.9L35.8481 9.78V19H33.9281ZM32.1281 9.98V8.4H38.8881V9.98H32.1281ZM40.7081 19V8.4H42.6281V19H40.7081ZM41.6681 6.36C41.2948 6.36 40.9815 6.24 40.7281 6C40.4881 5.76 40.3681 5.46667 40.3681 5.12C40.3681 4.76 40.4881 4.46 40.7281 4.22C40.9815 3.98 41.2948 3.86 41.6681 3.86C42.0415 3.86 42.3481 3.98 42.5881 4.22C42.8415 4.44667 42.9681 4.73333 42.9681 5.08C42.9681 5.44 42.8481 5.74667 42.6081 6C42.3681 6.24 42.0548 6.36 41.6681 6.36ZM43.7448 19L48.3048 13.08L48.2848 14.06L43.9448 8.4H46.0848L49.4048 12.76H48.5848L51.9048 8.4H54.0048L49.6048 14.1L49.6248 13.08L54.2248 19H52.0448L48.5448 14.36L49.3248 14.48L45.8848 19H43.7448ZM58.96 19.12C57.8933 19.12 57.0667 18.8333 56.48 18.26C55.8933 17.6867 55.6 16.8667 55.6 15.8V6.08H57.52V15.72C57.52 16.2933 57.66 16.7333 57.94 17.04C58.2333 17.3467 58.6467 17.5 59.18 17.5C59.78 17.5 60.28 17.3333 60.68 17L61.28 18.38C60.9867 18.6333 60.6333 18.82 60.22 18.94C59.82 19.06 59.4 19.12 58.96 19.12ZM53.8 9.98V8.4H60.56V9.98H53.8ZM66.9697 19.12C65.8364 19.12 64.8364 18.8867 63.9697 18.42C63.1164 17.9533 62.4497 17.3133 61.9697 16.5C61.503 15.6867 61.2697 14.7533 61.2697 13.7C61.2697 12.6467 61.4964 11.7133 61.9497 10.9C62.4164 10.0867 63.0497 9.45333 63.8497 9C64.663 8.53333 65.5764 8.3 66.5897 8.3C67.6164 8.3 68.523 8.52667 69.3097 8.98C70.0964 9.43333 70.7097 10.0733 71.1497 10.9C71.603 11.7133 71.8297 12.6667 71.8297 13.76C71.8297 13.84 71.823 13.9333 71.8097 14.04C71.8097 14.1467 71.803 14.2467 71.7897 14.34H62.7697V12.96H70.7897L70.0097 13.44C70.023 12.76 69.883 12.1533 69.5897 11.62C69.2964 11.0867 68.8897 10.6733 68.3697 10.38C67.863 10.0733 67.2697 9.92 66.5897 9.92C65.923 9.92 65.3297 10.0733 64.8097 10.38C64.2897 10.6733 63.883 11.0933 63.5897 11.64C63.2964 12.1733 63.1497 12.7867 63.1497 13.48V13.8C63.1497 14.5067 63.3097 15.14 63.6297 15.7C63.963 16.2467 64.423 16.6733 65.0097 16.98C65.5964 17.2867 66.2697 17.44 67.0297 17.44C67.6564 17.44 68.223 17.3333 68.7297 17.12C69.2497 16.9067 69.703 16.5867 70.0897 16.16L71.1497 17.4C70.6697 17.96 70.0697 18.3867 69.3497 18.68C68.643 18.9733 67.8497 19.12 66.9697 19.12ZM73.4958 19V8.4H75.3358V11.28L75.1558 10.56C75.4491 9.82667 75.9424 9.26667 76.6358 8.88C77.3291 8.49333 78.1824 8.3 79.1958 8.3V10.16C79.1158 10.1467 79.0358 10.14 78.9558 10.14C78.8891 10.14 78.8224 10.14 78.7558 10.14C77.7291 10.14 76.9158 10.4467 76.3158 11.06C75.7158 11.6733 75.4158 12.56 75.4158 13.72V19H73.4958Z" fill="#EEF2FF"/>
<path d="M9.38363 29V20.6H10.2716V28.232H14.9756V29H9.38363ZM18.1443 29.06C17.5363 29.06 16.9883 28.924 16.5003 28.652C16.0203 28.372 15.6403 27.992 15.3603 27.512C15.0803 27.024 14.9403 26.468 14.9403 25.844C14.9403 25.212 15.0803 24.656 15.3603 24.176C15.6403 23.696 16.0203 23.32 16.5003 23.048C16.9803 22.776 17.5283 22.64 18.1443 22.64C18.7683 22.64 19.3203 22.776 19.8003 23.048C20.2883 23.32 20.6683 23.696 20.9403 24.176C21.2203 24.656 21.3603 25.212 21.3603 25.844C21.3603 26.468 21.2203 27.024 20.9403 27.512C20.6683 27.992 20.2883 28.372 19.8003 28.652C19.3123 28.924 18.7603 29.06 18.1443 29.06ZM18.1443 28.304C18.6003 28.304 19.0043 28.204 19.3563 28.004C19.7083 27.796 19.9843 27.508 20.1843 27.14C20.3923 26.764 20.4963 26.332 20.4963 25.844C20.4963 25.348 20.3923 24.916 20.1843 24.548C19.9843 24.18 19.7083 23.896 19.3563 23.696C19.0043 23.488 18.6043 23.384 18.1563 23.384C17.7083 23.384 17.3083 23.488 16.9563 23.696C16.6043 23.896 16.3243 24.18 16.1163 24.548C15.9083 24.916 15.8043 25.348 15.8043 25.844C15.8043 26.332 15.9083 26.764 16.1163 27.14C16.3243 27.508 16.6043 27.796 16.9563 28.004C17.3083 28.204 17.7043 28.304 18.1443 28.304ZM25.7157 22.64C26.2277 22.64 26.6757 22.74 27.0597 22.94C27.4517 23.132 27.7557 23.428 27.9717 23.828C28.1957 24.228 28.3077 24.732 28.3077 25.34V29H27.4557V25.424C27.4557 24.76 27.2877 24.26 26.9517 23.924C26.6237 23.58 26.1597 23.408 25.5597 23.408C25.1117 23.408 24.7197 23.5 24.3837 23.684C24.0557 23.86 23.7997 24.12 23.6157 24.464C23.4397 24.8 23.3517 25.208 23.3517 25.688V29H22.4997V22.7H23.3157V24.428L23.1837 24.104C23.3837 23.648 23.7037 23.292 24.1437 23.036C24.5837 22.772 25.1077 22.64 25.7157 22.64ZM32.6971 31.388C32.1211 31.388 31.5691 31.304 31.0411 31.136C30.5131 30.968 30.0851 30.728 29.7571 30.416L30.1891 29.768C30.4851 30.032 30.8491 30.24 31.2811 30.392C31.7211 30.552 32.1851 30.632 32.6731 30.632C33.4731 30.632 34.0611 30.444 34.4371 30.068C34.8131 29.7 35.0011 29.124 35.0011 28.34V26.768L35.1211 25.688L35.0371 24.608V22.7H35.8531V28.232C35.8531 29.32 35.5851 30.116 35.0491 30.62C34.5211 31.132 33.7371 31.388 32.6971 31.388ZM32.5411 28.76C31.9411 28.76 31.4011 28.632 30.9211 28.376C30.4411 28.112 30.0611 27.748 29.7811 27.284C29.5091 26.82 29.3731 26.288 29.3731 25.688C29.3731 25.088 29.5091 24.56 29.7811 24.104C30.0611 23.64 30.4411 23.28 30.9211 23.024C31.4011 22.768 31.9411 22.64 32.5411 22.64C33.1011 22.64 33.6051 22.756 34.0531 22.988C34.5011 23.22 34.8571 23.564 35.1211 24.02C35.3851 24.476 35.5171 25.032 35.5171 25.688C35.5171 26.344 35.3851 26.9 35.1211 27.356C34.8571 27.812 34.5011 28.16 34.0531 28.4C33.6051 28.64 33.1011 28.76 32.5411 28.76ZM32.6251 28.004C33.0891 28.004 33.5011 27.908 33.8611 27.716C34.2211 27.516 34.5051 27.244 34.7131 26.9C34.9211 26.548 35.0251 26.144 35.0251 25.688C35.0251 25.232 34.9211 24.832 34.7131 24.488C34.5051 24.144 34.2211 23.876 33.8611 23.684C33.5011 23.484 33.0891 23.384 32.6251 23.384C32.1691 23.384 31.7571 23.484 31.3891 23.684C31.0291 23.876 30.7451 24.144 30.5371 24.488C30.3371 24.832 30.2371 25.232 30.2371 25.688C30.2371 26.144 30.3371 26.548 30.5371 26.9C30.7451 27.244 31.0291 27.516 31.3891 27.716C31.7571 27.908 32.1691 28.004 32.6251 28.004ZM40.3446 29V20.6H41.2326V29H40.3446ZM44.8777 29.06C44.3577 29.06 43.8657 28.988 43.4017 28.844C42.9377 28.692 42.5737 28.504 42.3097 28.28L42.6937 27.608C42.9497 27.8 43.2777 27.968 43.6777 28.112C44.0777 28.248 44.4977 28.316 44.9377 28.316C45.5377 28.316 45.9697 28.224 46.2337 28.04C46.4977 27.848 46.6297 27.596 46.6297 27.284C46.6297 27.052 46.5537 26.872 46.4017 26.744C46.2577 26.608 46.0657 26.508 45.8257 26.444C45.5857 26.372 45.3177 26.312 45.0217 26.264C44.7257 26.216 44.4297 26.16 44.1337 26.096C43.8457 26.032 43.5817 25.94 43.3417 25.82C43.1017 25.692 42.9057 25.52 42.7537 25.304C42.6097 25.088 42.5377 24.8 42.5377 24.44C42.5377 24.096 42.6337 23.788 42.8257 23.516C43.0177 23.244 43.2977 23.032 43.6657 22.88C44.0417 22.72 44.4977 22.64 45.0337 22.64C45.4417 22.64 45.8497 22.696 46.2577 22.808C46.6657 22.912 47.0017 23.052 47.2657 23.228L46.8937 23.912C46.6137 23.72 46.3137 23.584 45.9937 23.504C45.6737 23.416 45.3537 23.372 45.0337 23.372C44.4657 23.372 44.0457 23.472 43.7737 23.672C43.5097 23.864 43.3777 24.112 43.3777 24.416C43.3777 24.656 43.4497 24.844 43.5937 24.98C43.7457 25.116 43.9417 25.224 44.1817 25.304C44.4297 25.376 44.6977 25.436 44.9857 25.484C45.2817 25.532 45.5737 25.592 45.8617 25.664C46.1577 25.728 46.4257 25.82 46.6657 25.94C46.9137 26.052 47.1097 26.216 47.2537 26.432C47.4057 26.64 47.4817 26.916 47.4817 27.26C47.4817 27.628 47.3777 27.948 47.1697 28.22C46.9697 28.484 46.6737 28.692 46.2817 28.844C45.8977 28.988 45.4297 29.06 44.8777 29.06ZM48.445 29V20.096H49.297V29H48.445ZM55.0157 29V27.608L54.9797 27.38V25.052C54.9797 24.516 54.8277 24.104 54.5237 23.816C54.2277 23.528 53.7837 23.384 53.1917 23.384C52.7837 23.384 52.3957 23.452 52.0277 23.588C51.6597 23.724 51.3477 23.904 51.0917 24.128L50.7077 23.492C51.0277 23.22 51.4117 23.012 51.8597 22.868C52.3077 22.716 52.7797 22.64 53.2757 22.64C54.0917 22.64 54.7197 22.844 55.1597 23.252C55.6077 23.652 55.8317 24.264 55.8317 25.088V29H55.0157ZM52.8437 29.06C52.3717 29.06 51.9597 28.984 51.6077 28.832C51.2637 28.672 50.9997 28.456 50.8157 28.184C50.6317 27.904 50.5397 27.584 50.5397 27.224C50.5397 26.896 50.6157 26.6 50.7677 26.336C50.9277 26.064 51.1837 25.848 51.5357 25.688C51.8957 25.52 52.3757 25.436 52.9757 25.436H55.1477V26.072H52.9997C52.3917 26.072 51.9677 26.18 51.7277 26.396C51.4957 26.612 51.3797 26.88 51.3797 27.2C51.3797 27.56 51.5197 27.848 51.7997 28.064C52.0797 28.28 52.4717 28.388 52.9757 28.388C53.4557 28.388 53.8677 28.28 54.2117 28.064C54.5637 27.84 54.8197 27.52 54.9797 27.104L55.1717 27.692C55.0117 28.108 54.7317 28.44 54.3317 28.688C53.9397 28.936 53.4437 29.06 52.8437 29.06ZM60.7618 22.64C61.2738 22.64 61.7218 22.74 62.1058 22.94C62.4978 23.132 62.8018 23.428 63.0178 23.828C63.2418 24.228 63.3538 24.732 63.3538 25.34V29H62.5018V25.424C62.5018 24.76 62.3338 24.26 61.9978 23.924C61.6698 23.58 61.2058 23.408 60.6058 23.408C60.1578 23.408 59.7658 23.5 59.4298 23.684C59.1018 23.86 58.8458 24.12 58.6618 24.464C58.4858 24.8 58.3978 25.208 58.3978 25.688V29H57.5458V22.7H58.3618V24.428L58.2298 24.104C58.4298 23.648 58.7498 23.292 59.1898 23.036C59.6298 22.772 60.1538 22.64 60.7618 22.64ZM67.5632 29.06C66.9632 29.06 66.4232 28.924 65.9432 28.652C65.4712 28.38 65.0992 28.004 64.8272 27.524C64.5552 27.036 64.4192 26.476 64.4192 25.844C64.4192 25.204 64.5552 24.644 64.8272 24.164C65.0992 23.684 65.4712 23.312 65.9432 23.048C66.4232 22.776 66.9632 22.64 67.5632 22.64C68.1152 22.64 68.6072 22.764 69.0392 23.012C69.4792 23.26 69.8272 23.624 70.0832 24.104C70.3472 24.576 70.4792 25.156 70.4792 25.844C70.4792 26.524 70.3512 27.104 70.0952 27.584C69.8392 28.064 69.4912 28.432 69.0512 28.688C68.6192 28.936 68.1232 29.06 67.5632 29.06ZM67.6232 28.304C68.0712 28.304 68.4712 28.204 68.8232 28.004C69.1832 27.796 69.4632 27.508 69.6632 27.14C69.8712 26.764 69.9752 26.332 69.9752 25.844C69.9752 25.348 69.8712 24.916 69.6632 24.548C69.4632 24.18 69.1832 23.896 68.8232 23.696C68.4712 23.488 68.0712 23.384 67.6232 23.384C67.1832 23.384 66.7872 23.488 66.4352 23.696C66.0832 23.896 65.8032 24.18 65.5952 24.548C65.3872 24.916 65.2832 25.348 65.2832 25.844C65.2832 26.332 65.3872 26.764 65.5952 27.14C65.8032 27.508 66.0832 27.796 66.4352 28.004C66.7872 28.204 67.1832 28.304 67.6232 28.304ZM69.9992 29V27.104L70.0832 25.832L69.9632 24.56V20.096H70.8152V29H69.9992Z" fill="#EEF2FF"/>
</svg>
