<svg width="26" height="26" viewBox="0 0 26 26" fill="none" xmlns="http://www.w3.org/2000/svg">
<circle cx="13" cy="13" r="13" fill="#EEF2FF"/>
<path opacity="0.987" fill-rule="evenodd" clip-rule="evenodd" d="M11.9716 3.97937C12.9141 3.87407 13.4718 3.87407 14.4845 3.97937C16.2771 4.24469 17.9389 5.0733 19.2295 6.34537C18.3574 7.16974 17.4967 8.00616 16.6477 8.85437C15.0219 7.47637 13.2071 7.1583 11.2033 7.90017C9.73346 8.57617 8.70992 9.67163 8.13272 11.1866C7.1895 10.4843 6.25856 9.76577 5.34032 9.03117C5.27651 8.99758 5.20363 8.98528 5.13232 8.99607C6.59092 6.18373 8.87026 4.51107 11.9703 3.97807" fill="#F44336"/>
<path opacity="0.997" fill-rule="evenodd" clip-rule="evenodd" d="M5.12974 8.99609C5.2034 8.98482 5.27317 8.99652 5.33904 9.03119C6.25727 9.76579 7.18821 10.4844 8.13144 11.1866C7.98301 11.7769 7.88945 12.3796 7.85194 12.9871C7.884 13.5747 7.97717 14.1515 8.13144 14.7174L5.19994 17.0509C3.92334 14.3833 3.89994 11.6984 5.12974 8.99609Z" fill="#FFC107"/>
<path opacity="0.999" fill-rule="evenodd" clip-rule="evenodd" d="M19.0905 19.8772C18.1777 19.0722 17.2221 18.3171 16.2279 17.6152C17.2245 16.9114 17.8295 15.946 18.0427 14.7188H13.1586V11.3271C15.9752 11.3037 18.7906 11.3275 21.6047 11.3986C22.1385 14.2976 21.5219 16.9114 19.7548 19.2402C19.5446 19.4635 19.3221 19.6761 19.0905 19.8772Z" fill="#448AFF"/>
<path opacity="0.993" fill-rule="evenodd" clip-rule="evenodd" d="M8.13145 14.7188C9.19745 17.3681 11.1518 18.6049 13.9945 18.429C14.7924 18.3366 15.5575 18.0578 16.2279 17.6152C17.2228 18.3189 18.177 19.0729 19.0905 19.8772C17.6431 21.1777 15.7977 21.9494 13.8554 22.0664C13.4141 22.1016 12.9706 22.1016 12.5294 22.0664C9.22042 21.6764 6.77728 20.0046 5.19995 17.051L8.13145 14.7188Z" fill="#43A047"/>
</svg>
