<svg width="45" height="43" viewBox="0 0 45 43" fill="none" xmlns="http://www.w3.org/2000/svg">
<path fill-rule="evenodd" clip-rule="evenodd" d="M23.13 37.8563C24.7132 37.7456 26.2828 37.4895 27.819 37.0913C29.7147 37.6694 31.7187 37.8003 33.6735 37.4738C33.7511 37.4637 33.8292 37.4577 33.9075 37.4557C34.605 37.4557 35.5207 37.8608 36.855 38.7158V37.3095C36.8553 37.0662 36.9202 36.8274 37.0432 36.6174C37.1661 36.4075 37.3427 36.234 37.5547 36.1147C38.1367 35.7848 38.6745 35.4105 39.168 34.992C41.112 33.345 42.21 31.149 42.21 28.8225C42.207 28.0395 42.0877 27.285 41.8522 26.559C42.4417 25.461 42.912 24.3135 43.263 23.1165C44.3894 24.8068 44.9935 26.7913 45 28.8225C45 31.9837 43.5285 34.9312 40.9837 37.0868C40.5584 37.4455 40.1113 37.7777 39.645 38.0812V41.3685C39.645 42.5002 38.34 43.1505 37.4198 42.4777C36.5496 41.8271 35.6486 41.2189 34.7197 40.6553C34.4537 40.4962 34.1771 40.3556 33.8918 40.2345C33.1252 40.35 32.346 40.4077 31.554 40.4077C28.377 40.4077 25.4408 39.456 23.13 37.8563ZM6.3315 31.2817C2.3175 27.8775 0 23.2402 0 18.27C0 8.11575 9.5805 0 21.2782 0C32.976 0 42.5588 8.11575 42.5588 18.27C42.5588 28.4265 32.976 36.5422 21.2782 36.5422C19.9613 36.5422 18.6653 36.441 17.3903 36.2385C16.839 36.369 14.6362 37.6785 11.4615 39.996C10.3117 40.8375 8.6805 40.0252 8.6805 38.61V33.003C7.85721 32.4864 7.07218 31.9111 6.3315 31.2817ZM17.4667 32.7803C17.5642 32.7803 17.6617 32.7878 17.7592 32.8027C18.9067 32.9963 20.0857 33.0952 21.2782 33.0952C31.1602 33.0952 39.069 26.3948 39.069 18.27C39.069 10.1475 31.1602 3.447 21.2782 3.447C11.4008 3.447 3.4875 10.1475 3.4875 18.27C3.4875 22.1985 5.33475 25.8975 8.60175 28.665C9.42675 29.361 10.3238 29.985 11.2928 30.537C11.835 30.843 12.1703 31.4145 12.1703 32.031V35.2643C14.6813 33.579 16.3327 32.7803 17.4667 32.7803ZM12.2085 21.7192C10.6672 21.7192 9.4185 20.4818 9.4185 18.9608C9.4185 17.4375 10.6672 16.2023 12.2085 16.2023C13.7497 16.2023 14.9985 17.4375 14.9985 18.9608C14.9985 20.484 13.7497 21.7192 12.2085 21.7192ZM21.2782 21.7192C19.737 21.7192 18.4883 20.4818 18.4883 18.9608C18.4883 17.4375 19.737 16.2023 21.2782 16.2023C22.8195 16.2023 24.0683 17.4375 24.0683 18.9608C24.0683 20.484 22.8195 21.7192 21.2782 21.7192ZM30.348 21.7192C28.8068 21.7192 27.558 20.4818 27.558 18.9608C27.558 17.4375 28.8068 16.2023 30.348 16.2023C31.8893 16.2023 33.138 17.4375 33.138 18.9608C33.138 20.484 31.8893 21.7192 30.348 21.7192Z" fill="#E7EBF8"/>
</svg>
